<?xml version="1.0" encoding="UTF-8" standalone="no"?>
<!DOCTYPE svg PUBLIC "-//W3C//DTD SVG 1.1//EN" "http://www.w3.org/Graphics/SVG/1.1/DTD/svg11.dtd">
<svg width="100%" height="100%" viewBox="0 0 1319 929" version="1.1" xmlns="http://www.w3.org/2000/svg" xmlns:xlink="http://www.w3.org/1999/xlink" xml:space="preserve" xmlns:serif="http://www.serif.com/" style="fill-rule:evenodd;clip-rule:evenodd;stroke-linejoin:round;stroke-miterlimit:2;">
    <g transform="matrix(4.16667,0,0,4.16667,0.00087148,-0.472768)">
        <path d="M134.499,109.936C107.412,90.389 69.798,95.758 49.177,121.589C46.143,114.192 39.707,108.315 31.347,106.365C17.63,103.167 3.869,111.723 0.67,125.439C-2.528,139.156 6.028,152.917 19.744,156.116C25.336,157.42 30.935,156.769 35.823,154.612C33.811,175.952 42.811,197.79 61.413,211.214C89.335,231.363 128.445,225.04 148.595,197.118C168.745,169.196 162.421,130.087 134.499,109.936ZM313.142,86.574C305.222,102.591 285.748,109.178 269.731,101.259C260.129,96.511 253.921,87.61 252.191,77.791C245.264,82.79 236.793,85.786 227.621,85.884C214.329,86.028 203.475,81.223 195.951,73.393C196.052,74.072 196.139,74.757 196.193,75.451C197.416,91.24 185.567,105.079 169.779,106.303C153.99,107.526 140.15,95.677 138.927,79.889C137.704,64.101 149.553,50.261 165.341,49.037C173.12,48.434 180.422,51.01 185.98,55.662C184.908,51.798 184.321,47.705 184.275,43.462C184.02,19.816 203.05,0.371 226.697,0.116C250.344,-0.139 269.788,18.892 270.043,42.538C270.045,42.706 270.037,42.872 270.037,43.039C278.722,38.865 289.169,38.571 298.457,43.163C314.474,51.083 321.062,70.557 313.142,86.574Z" style="fill:rgb(44,57,70);fill-rule:nonzero;"/>
    </g>
    <g transform="matrix(4.16667,0,0,4.16667,0.00087148,-0.472768)">
        <path d="M10.242,146.233C1.39,137.563 1.242,123.307 9.912,114.455C18.582,105.603 32.838,105.454 41.69,114.125C50.542,122.795 50.691,137.051 42.02,145.903C33.351,154.756 19.095,154.904 10.242,146.233Z" style="fill:url(#_Linear1);"/>
    </g>
    <g transform="matrix(4.16667,0,0,4.16667,0.00087148,-0.472768)">
        <path d="M148.25,87.844C141.383,76.776 144.801,62.184 155.869,55.317C166.937,48.45 181.529,51.868 188.396,62.936C195.263,74.004 191.845,88.596 180.777,95.463C169.709,102.33 155.118,98.912 148.25,87.844Z" style="fill:url(#_Linear2);"/>
    </g>
    <g transform="matrix(4.16667,0,0,4.16667,0.00087148,-0.472768)">
        <path d="M186.425,44.459C186.19,22.649 203.743,4.714 225.552,4.479C247.362,4.244 265.297,21.797 265.532,43.607C265.767,65.417 248.214,83.351 226.405,83.587C204.594,83.821 186.66,66.269 186.425,44.459Z" style="fill:url(#_Linear3);"/>
    </g>
    <g transform="matrix(4.16667,0,0,4.16667,0.00087148,-0.472768)">
        <path d="M208.175,29.66C208.175,29.66 211.005,29.006 215.37,27.917C219.736,26.829 221.291,30.285 221.291,30.285C221.291,30.285 220.102,29.138 216.287,29.273C212.474,29.407 207.765,30.331 207.765,30.331L208.175,29.66Z" style="fill:rgb(44,57,70);fill-rule:nonzero;"/>
    </g>
    <g transform="matrix(4.16667,0,0,4.16667,0.00087148,-0.472768)">
        <path d="M241.177,33.434C241.077,34.947 239.768,36.092 238.255,35.991C236.742,35.89 235.597,34.582 235.698,33.069C235.799,31.555 237.107,30.411 238.62,30.511C240.133,30.613 241.279,31.921 241.177,33.434Z" style="fill:rgb(44,57,70);fill-rule:nonzero;"/>
    </g>
    <g transform="matrix(4.16667,0,0,4.16667,0.00087148,-0.472768)">
        <path d="M235.785,59.002C224.966,60.285 212.09,52.852 206.679,50.539C205.765,50.148 204.849,49.711 204.127,49.207L201.989,51.054C201.989,51.054 205.445,44.79 206.498,44.663L209.859,44.258L205.763,47.795C206.162,48.028 206.718,48.31 207.492,48.639C213.186,51.075 228.309,57.555 238.766,54.921C243.602,53.709 244.193,52.399 244.259,52.026C244.381,51.331 243.446,50.529 243.208,50.367L244.366,48.658L248.825,54.175L246.281,52.449C245.896,54.374 243.156,55.325 238.823,56.411C237.953,56.629 236.704,58.893 235.785,59.002Z" style="fill:rgb(44,57,70);fill-rule:nonzero;"/>
    </g>
    <g transform="matrix(4.16667,0,0,4.16667,0.00087148,-0.472768)">
        <path d="M150.456,137.104C138.231,108.172 104.746,94.581 75.814,106.806C65.259,111.266 56.758,118.563 50.795,127.429C51.269,130.543 51.178,133.793 50.42,137.042C49.082,142.779 45.892,147.608 41.634,151.057C40.163,161.027 41.315,171.506 45.517,181.447C57.742,210.38 91.226,223.97 120.158,211.746C149.09,199.52 162.682,166.036 150.456,137.104Z" style="fill:url(#_Linear4);"/>
    </g>
    <g transform="matrix(4.16667,0,0,4.16667,0.00087148,-0.472768)">
        <path d="M298.176,45.581C288.799,40.945 278.095,41.881 269.847,47.111C268.833,57.713 263.937,67.214 256.588,74.16C257.497,83.816 263.234,92.802 272.548,97.408C286.837,104.473 304.21,98.597 311.276,84.308C318.341,70.019 312.464,52.646 298.176,45.581Z" style="fill:url(#_Linear5);"/>
    </g>
    <g transform="matrix(4.16667,0,0,4.16667,0.00087148,-0.472768)">
        <path d="M283.086,120.852L283.086,68.838L248.779,68.838L248.146,68.838L197.887,68.838L197.887,73.657L195.757,73.657C192.602,70.478 187.892,68.838 181.704,68.838L130.781,68.838L130.781,73.657L128.711,73.657C125.508,70.515 120.912,68.838 115.117,68.838L95.408,68.838L95.408,73.657L90.611,73.657L89.84,68.838L67.996,68.838L67.225,73.657L58.339,73.657C55.183,70.477 50.471,68.838 44.282,68.838L25.266,68.838L25.266,138.77L44.052,138.77L44.052,134.341L45.048,134.341C45.159,134.734 45.282,135.124 45.419,135.534L46.499,138.77L74.971,138.77L75.633,134.341L81.337,134.341L82,138.77L115.117,138.77C120.665,138.77 125.111,137.228 128.291,134.341L130.781,134.341L130.781,138.77L182.311,138.77C187.903,138.77 192.437,137.212 195.684,134.341L197.887,134.341L197.887,138.77L233.143,138.77L233.143,134.341L234.42,134.341C237.654,137.714 242.34,139.55 248.203,139.55C254.06,139.55 258.739,137.71 261.972,134.341L264.3,134.341L264.3,138.77L298.777,138.77L298.777,120.852L283.086,120.852Z" style="fill:rgb(44,57,70);fill-rule:nonzero;"/>
    </g>
    <g transform="matrix(4.16667,0,0,4.16667,0.00087148,-0.472768)">
        <path d="M268.925,73.462L278.461,73.462L278.461,125.477L294.152,125.477L294.152,134.145L268.925,134.145L268.925,73.462ZM243.521,73.462L243.521,120.276C243.521,124.61 245.428,126.169 248.462,126.169C251.495,126.169 253.403,124.61 253.403,120.276L253.403,73.462L262.418,73.462L262.418,119.669C262.418,129.378 257.565,134.925 248.203,134.925C238.839,134.925 233.984,129.378 233.984,119.669L233.984,73.462L243.521,73.462ZM212.047,99.035L225.137,99.035L225.137,107.705L212.047,107.705L212.047,125.477L228.519,125.477L228.519,134.145L202.511,134.145L202.511,73.462L228.519,73.462L228.519,82.131L212.047,82.131L212.047,99.035ZM176.848,106.839L176.848,125.477L182.31,125.477C185.518,125.477 187.251,124.003 187.251,119.494L187.251,114.206C187.251,108.573 185.43,106.839 181.096,106.839L176.848,106.839ZM176.848,82.131L176.848,98.168L180.576,98.168C184.13,98.168 186.297,96.61 186.297,91.753L186.297,88.373C186.297,84.039 184.824,82.131 181.442,82.131L176.848,82.131ZM195.833,87.419L195.833,89.588C195.833,95.828 193.926,99.817 189.678,101.81C194.793,103.803 196.787,108.398 196.787,114.812L196.787,119.754C196.787,129.117 191.845,134.145 182.31,134.145L167.312,134.145L167.312,73.462L181.704,73.462C191.585,73.462 195.833,78.056 195.833,87.419ZM144.941,99.035L158.032,99.035L158.032,107.705L144.941,107.705L144.941,125.477L161.412,125.477L161.412,134.145L135.405,134.145L135.405,73.462L161.412,73.462L161.412,82.131L144.941,82.131L144.941,99.035ZM109.569,82.131L109.569,125.477L114.943,125.477C117.977,125.477 119.798,123.916 119.798,119.582L119.798,88.026C119.798,83.692 117.977,82.131 114.943,82.131L109.569,82.131ZM100.032,73.462L115.117,73.462C124.653,73.462 129.335,78.751 129.335,88.458L129.335,119.147C129.335,128.857 124.653,134.145 115.117,134.145L100.032,134.145L100.032,73.462ZM73.847,114.9L83.036,114.9L78.441,84.212L73.847,114.9ZM95.606,134.145L85.984,134.145L84.336,123.136L72.633,123.136L70.987,134.145L62.229,134.145L71.939,73.462L85.896,73.462L95.606,134.145ZM39.427,82.131L39.427,100.768L43.154,100.768C46.709,100.768 48.876,99.21 48.876,94.354L48.876,88.373C48.876,84.039 47.402,82.131 44.021,82.131L39.427,82.131ZM49.831,134.145C49.31,132.584 48.963,131.633 48.963,126.691L48.963,117.153C48.963,111.518 47.056,109.439 42.721,109.439L39.427,109.439L39.427,134.145L29.891,134.145L29.891,73.462L44.282,73.462C54.164,73.462 58.413,78.056 58.413,87.419L58.413,92.188C58.413,98.428 56.419,102.502 52.171,104.498C56.938,106.491 58.498,111.086 58.498,117.413L58.498,126.776C58.498,129.723 58.586,131.892 59.539,134.145L49.831,134.145Z" style="fill:white;fill-rule:nonzero;"/>
    </g>
    <g transform="matrix(4.16667,0,0,4.16667,0.00087148,-0.472768)">
        <path d="M114.383,78.838C114.106,78.838 113.824,78.814 113.543,78.766L68.958,70.996C66.592,70.592 64.764,68.541 64.513,66.009L60.88,29.153C60.654,26.851 62.241,24.803 64.418,24.588L109.398,16.654L152.966,15.863C153.96,15.764 155.013,16.119 155.827,16.841C156.632,17.553 157.136,18.552 157.245,19.654L160.882,56.545C161.129,59.05 159.755,61.411 157.542,62.287L116.205,78.491C115.774,78.66 115.324,78.769 114.869,78.814C114.708,78.83 114.546,78.838 114.383,78.838Z" style="fill:white;fill-rule:nonzero;"/>
    </g>
    <g transform="matrix(4.16667,0,0,4.16667,0.00087148,-0.472768)">
        <path d="M109.431,16.989L65.561,24.727C63.185,24.998 61.484,27.211 61.726,29.667L65.265,65.569C65.528,68.236 67.461,70.399 69.963,70.826L113.403,78.396C113.871,78.476 114.358,78.495 114.802,78.446C115.294,78.398 115.773,78.282 116.23,78.103L156.502,62.317C158.842,61.391 160.295,58.901 160.036,56.26L156.493,20.323C156.375,19.138 155.832,18.061 154.962,17.292C154.092,16.521 152.977,16.135 151.856,16.224L109.431,16.989ZM114.291,79.972C113.914,79.972 113.53,79.939 113.149,79.874L69.708,72.305C66.544,71.763 64.102,69.054 63.772,65.716L60.233,29.814C59.911,26.547 62.206,23.599 65.348,23.243L109.345,15.49L151.78,14.727C151.879,14.717 152.03,14.711 152.178,14.711C153.554,14.711 154.897,15.229 155.957,16.169C157.11,17.189 157.83,18.613 157.985,20.177L161.528,56.113C161.854,59.416 160.013,62.541 157.052,63.712L116.779,79.498C116.193,79.73 115.579,79.877 114.954,79.938C114.746,79.96 114.519,79.972 114.291,79.972Z" style="fill:rgb(44,57,70);fill-rule:nonzero;"/>
    </g>
    <g transform="matrix(4.16667,0,0,4.16667,0.00087148,-0.472768)">
        <path d="M114.291,77.17C114.07,77.17 113.842,77.151 113.615,77.113L70.189,69.544C68.257,69.214 66.766,67.527 66.56,65.44L63.02,29.539C62.846,27.763 64.051,26.185 65.705,26.022L109.518,18.295L151.892,17.527C152.038,17.515 152.118,17.511 152.196,17.511C152.864,17.511 153.557,17.785 154.098,18.266C154.723,18.818 155.113,19.594 155.198,20.453L158.741,56.388C158.944,58.452 157.826,60.394 156.021,61.108L115.756,76.891C115.41,77.028 115.048,77.114 114.681,77.151C114.552,77.164 114.422,77.17 114.291,77.17Z" style="fill:rgb(44,57,70);fill-rule:nonzero;"/>
    </g>
    <g transform="matrix(4.16667,0,0,4.16667,0.00087148,-0.472768)">
        <path d="M68.522,30.957L85.312,29.303L85.799,34.242L80.12,34.802L83.038,64.431L77.606,64.966L74.687,35.337L69.009,35.897L68.522,30.957Z" style="fill:white;fill-rule:nonzero;"/>
    </g>
    <g transform="matrix(4.16667,0,0,4.16667,0.00087148,-0.472768)">
        <path d="M94.645,43.093L102.103,42.359L102.589,47.297L95.133,48.031L96.13,58.154L105.513,57.23L105.999,62.168L91.184,63.628L87.778,29.06L102.594,27.6L103.08,32.539L93.697,33.464L94.645,43.093Z" style="fill:white;fill-rule:nonzero;"/>
    </g>
    <g transform="matrix(4.16667,0,0,4.16667,0.00087148,-0.472768)">
        <path d="M113.46,50.364L118.695,49.849L114.355,32.625L113.46,50.364ZM126.935,60.106L121.454,60.646L119.897,54.467L113.231,55.124L112.91,61.488L107.922,61.979L110.048,26.865L117.998,26.082L126.935,60.106Z" style="fill:white;fill-rule:nonzero;"/>
    </g>
    <g transform="matrix(4.16667,0,0,4.16667,0.00087148,-0.472768)">
        <path d="M139.969,48.7L141.255,23.791L148.811,23.047L152.216,57.615L147.08,58.121L144.638,33.331L143.328,58.491L138.192,58.997L131.734,34.951L134.142,59.396L129.401,59.863L125.996,25.295L133.551,24.55L139.969,48.7Z" style="fill:white;fill-rule:nonzero;"/>
    </g>
    <g transform="matrix(4.16667,0,0,4.16667,0.00087148,-0.472768)">
        <path d="M269.907,167.079C269.752,165.521 268.366,164.383 266.807,164.536L254.039,165.794L250.633,131.22C250.48,129.663 249.092,128.524 247.535,128.677L106.439,142.577C104.881,142.73 103.743,144.118 103.896,145.677L107.341,180.64C107.494,182.198 108.881,183.337 110.439,183.183L133.039,180.957L136.445,215.53C136.599,217.088 137.986,218.226 139.544,218.073L270.807,205.142C272.366,204.989 273.504,203.601 273.351,202.044L269.907,167.079Z" style="fill:rgb(44,57,70);fill-rule:nonzero;"/>
    </g>
    <g transform="matrix(4.16667,0,0,4.16667,0.00087148,-0.472768)">
        <path d="M253.468,178.413L255.767,201.741L251.212,202.189L248.038,169.981L254.389,169.355L261.487,188.122L259.587,168.843L264.097,168.399L267.27,200.607L262.07,201.119L253.468,178.413ZM237.552,184.719L244.499,184.035L244.953,188.635L238.005,189.32L238.935,198.752L247.677,197.891L248.129,202.493L234.327,203.852L231.154,171.644L244.956,170.285L245.411,174.886L236.668,175.747L237.552,184.719ZM219.28,190.701L220.254,200.593L223.153,200.307C224.856,200.139 225.699,199.266 225.462,196.874L225.187,194.067C224.892,191.077 223.835,190.252 221.535,190.478L219.28,190.701ZM217.989,177.588L218.827,186.098L220.805,185.904C222.691,185.718 223.76,184.777 223.506,182.201L223.329,180.406C223.103,178.105 222.221,177.171 220.427,177.347L217.989,177.588ZM228.34,179.401L228.454,180.552C228.781,183.864 227.977,186.08 225.827,187.361C228.646,188.151 229.944,190.486 230.279,193.891L230.537,196.513C231.028,201.483 228.667,204.41 223.607,204.909L215.646,205.693L212.473,173.485L220.112,172.732C225.356,172.216 227.852,174.432 228.34,179.401ZM201.941,188.227L208.888,187.544L209.341,192.144L202.394,192.829L203.323,202.26L212.065,201.399L212.519,206.001L198.715,207.361L195.542,175.152L209.345,173.793L209.799,178.394L201.057,179.256L201.941,188.227ZM179.853,176.698L184.914,176.2L187.634,203.806L195.962,202.986L196.415,207.588L183.026,208.907L179.853,176.698ZM160.804,201.665L162.002,178.457L169.041,177.763L172.214,209.971L167.43,210.443L165.154,187.344L163.933,210.788L159.148,211.26L153.131,188.854L155.375,211.631L150.958,212.066L147.785,179.857L154.825,179.164L160.804,201.665ZM139.089,180.715L144.151,180.216L147.324,212.424L142.262,212.923L139.089,180.715ZM230.293,134.855L245.937,133.313L246.39,137.915L241.099,138.436L243.819,166.043L238.757,166.541L236.037,138.934L230.746,139.456L230.293,134.855ZM222.932,135.58L227.994,135.081L231.166,167.289L226.105,167.788L222.932,135.58ZM211.014,159.843L212.212,136.636L219.252,135.942L222.425,168.149L217.64,168.621L215.365,145.524L214.143,168.966L209.359,169.437L203.341,147.034L205.585,169.808L201.168,170.244L197.995,138.036L205.035,137.343L211.014,159.843ZM179.498,172.379L174.437,172.878L171.263,140.67L176.326,140.172L177.685,153.975L183.436,153.409L182.077,139.604L187.23,139.096L190.403,171.304L185.249,171.812L183.89,158.01L178.138,158.576L179.498,172.379ZM170.171,161.173L170.593,165.451C171.101,170.605 168.814,173.803 163.845,174.293C158.876,174.782 156.009,172.092 155.501,166.938L153.851,150.19C153.344,145.037 155.631,141.839 160.6,141.348C165.569,140.859 168.436,143.551 168.944,148.704L169.251,151.833L164.466,152.304L164.126,148.853C163.9,146.552 162.801,145.778 161.191,145.936C159.58,146.094 158.655,147.069 158.881,149.369L160.594,166.762C160.822,169.062 161.915,169.791 163.526,169.633C165.136,169.473 166.067,168.546 165.84,166.246L165.387,161.644L170.171,161.173ZM141.822,165.777L146.699,165.297L142.656,149.25L141.822,165.777ZM154.377,174.853L149.269,175.356L147.82,169.599L141.608,170.212L141.309,176.14L136.662,176.599L138.642,143.884L146.051,143.154L154.377,174.853ZM122.906,168.523L124.104,145.316L131.144,144.623L134.317,176.83L129.532,177.302L127.257,154.204L126.035,177.645L121.25,178.117L115.233,155.714L117.477,178.489L113.06,178.924L109.887,146.717L116.927,146.022L122.906,168.523Z" style="fill:url(#_Linear6);"/>
    </g>
    <defs>
        <linearGradient id="_Linear1" x1="0" y1="0" x2="1" y2="0" gradientUnits="userSpaceOnUse" gradientTransform="matrix(35.6871,-27.3259,27.3259,35.6871,8.12312,143.842)"><stop offset="0" style="stop-color:rgb(247,147,29);stop-opacity:1"/><stop offset="0.3" style="stop-color:rgb(248,150,30);stop-opacity:1"/><stop offset="1" style="stop-color:rgb(248,237,49);stop-opacity:1"/></linearGradient>
        <linearGradient id="_Linear2" x1="0" y1="0" x2="1" y2="0" gradientUnits="userSpaceOnUse" gradientTransform="matrix(33.4113,-33.4113,33.4113,33.4113,151.617,92.0953)"><stop offset="0" style="stop-color:rgb(191,30,45);stop-opacity:1"/><stop offset="0.3" style="stop-color:rgb(193,34,45);stop-opacity:1"/><stop offset="0.7" style="stop-color:rgb(241,90,41);stop-opacity:1"/><stop offset="1" style="stop-color:rgb(241,90,41);stop-opacity:1"/></linearGradient>
        <linearGradient id="_Linear3" x1="0" y1="0" x2="1" y2="0" gradientUnits="userSpaceOnUse" gradientTransform="matrix(45.3609,-64.782,64.782,45.3609,203.298,76.4234)"><stop offset="0" style="stop-color:rgb(57,181,74);stop-opacity:1"/><stop offset="0.8" style="stop-color:rgb(206,220,40);stop-opacity:1"/><stop offset="1" style="stop-color:rgb(215,223,34);stop-opacity:1"/></linearGradient>
        <linearGradient id="_Linear4" x1="0" y1="0" x2="1" y2="0" gradientUnits="userSpaceOnUse" gradientTransform="matrix(80.5576,-80.5576,80.5576,80.5576,57.7113,199.558)"><stop offset="0" style="stop-color:rgb(82,195,209);stop-opacity:1"/><stop offset="0.9" style="stop-color:rgb(0,168,185);stop-opacity:1"/><stop offset="1" style="stop-color:rgb(0,168,185);stop-opacity:1"/></linearGradient>
        <linearGradient id="_Linear5" x1="0" y1="0" x2="1" y2="0" gradientUnits="userSpaceOnUse" gradientTransform="matrix(-23.7543,52.7128,-52.7128,-23.7543,298.958,45.9122)"><stop offset="0" style="stop-color:rgb(39,170,225);stop-opacity:1"/><stop offset="1" style="stop-color:rgb(19,117,188);stop-opacity:1"/></linearGradient>
        <linearGradient id="_Linear6" x1="0" y1="0" x2="1" y2="0" gradientUnits="userSpaceOnUse" gradientTransform="matrix(48.7509,104.547,-104.547,48.7509,164.203,121.388)"><stop offset="0" style="stop-color:rgb(215,223,34);stop-opacity:1"/><stop offset="0.6" style="stop-color:rgb(198,217,44);stop-opacity:1"/><stop offset="0.8" style="stop-color:rgb(159,204,58);stop-opacity:1"/><stop offset="1" style="stop-color:rgb(57,181,74);stop-opacity:1"/></linearGradient>
    </defs>
</svg>
